<svg width="11" height="12" viewBox="0 0 11 12" fill="none" xmlns="http://www.w3.org/2000/svg">
<path d="M10.9168 8.20909C10.9166 8.94985 10.6634 9.66832 10.1991 10.2456C9.73489 10.8228 9.08743 11.2242 8.36396 11.3833L8.01837 10.3465C8.33483 10.2944 8.63579 10.1727 8.89955 9.99025C9.16332 9.80779 9.38332 9.56908 9.5437 9.29134H8.2085C7.92118 9.29134 7.64563 9.17721 7.44246 8.97404C7.2393 8.77088 7.12516 8.49533 7.12516 8.20801V6.04134C7.12516 5.75402 7.2393 5.47847 7.44246 5.27531C7.64563 5.07214 7.92118 4.95801 8.2085 4.95801H9.79991C9.66773 3.91091 9.15799 2.94803 8.36635 2.25004C7.57471 1.55205 6.55557 1.16692 5.50016 1.16692C4.44475 1.16692 3.42562 1.55205 2.63397 2.25004C1.84233 2.94803 1.3326 3.91091 1.20041 4.95801H2.79183C3.07915 4.95801 3.3547 5.07214 3.55786 5.27531C3.76103 5.47847 3.87516 5.75402 3.87516 6.04134V8.20801C3.87516 8.49533 3.76103 8.77088 3.55786 8.97404C3.3547 9.17721 3.07915 9.29134 2.79183 9.29134H1.16683C0.879512 9.29134 0.603961 9.17721 0.400797 8.97404C0.197633 8.77088 0.0834961 8.49533 0.0834961 8.20801V5.49967C0.0834961 2.50805 2.50854 0.0830078 5.50016 0.0830078C8.49179 0.0830078 10.9168 2.50805 10.9168 5.49967V8.20909Z" fill="white"/>
</svg>
