<svg width="40" height="40" viewBox="0 0 40 40" fill="none" xmlns="http://www.w3.org/2000/svg">
<path d="M19.9998 14.08C19.5838 14.08 19.2398 13.944 18.9678 13.672C18.6958 13.4 18.5598 13.056 18.5598 12.64C18.5598 12.224 18.6958 11.88 18.9678 11.608C19.2398 11.336 19.5838 11.2 19.9998 11.2C20.4158 11.2 20.7598 11.336 21.0318 11.608C21.3038 11.88 21.4398 12.224 21.4398 12.64C21.4398 13.056 21.3038 13.4 21.0318 13.672C20.7598 13.944 20.4158 14.08 19.9998 14.08ZM18.7998 28V16H21.1998V28H18.7998Z" fill="#FF151F"/>
<circle cx="20" cy="20" r="19" stroke="#FF151F" stroke-width="2"/>
</svg>
